<svg width="60" height="60" viewBox="0 0 60 60" fill="none" xmlns="http://www.w3.org/2000/svg">
<circle cx="30" cy="30" r="30" fill="#33475B"/>
<g clip-path="url(#clip0_13_94)">
<path fill-rule="evenodd" clip-rule="evenodd" d="M44.7157 18.4889C44.4611 16.9135 43.5109 15.9649 41.9801 15.7484C41.9428 15.7395 38.2147 15.0244 32.3638 15.0244C26.5147 15.0244 22.7865 15.7395 22.7614 15.7452C21.5638 15.9154 20.7287 16.5292 20.2949 17.5225C22.8021 17.2453 25.3228 17.1091 27.8452 17.1146C33.516 17.1146 37.2887 17.7665 37.8425 17.8687C40.339 18.2433 42.0749 19.9752 42.4949 22.513C42.6765 23.34 43.2506 26.2476 43.2506 29.7187C43.2506 31.5771 43.0836 33.2822 42.9036 34.5852C43.8928 34.1668 44.5155 33.3284 44.7117 32.1171C44.7182 32.0871 45.4357 29.0246 45.4357 25.2941C45.4357 21.5644 44.7182 18.5019 44.7141 18.4881" fill="white"/>
<path fill-rule="evenodd" clip-rule="evenodd" d="M40.1976 22.9136C39.943 21.3373 38.9919 20.3887 37.4619 20.1714C37.4246 20.1633 33.6965 19.4498 27.8465 19.4498C21.9973 19.4498 18.2684 20.1633 18.244 20.1698C16.7011 20.3887 15.7508 21.3373 15.5003 22.8965C15.4921 22.9265 14.7754 25.989 14.7754 29.7195C14.7754 33.4492 15.4921 36.5117 15.4962 36.5246C15.7508 38.1008 16.7011 39.0495 18.2319 39.2668C18.2619 39.2725 20.6805 39.7354 24.664 39.9163L27.0381 44.0287C27.12 44.1706 27.2378 44.2885 27.3797 44.3705C27.5216 44.4524 27.6826 44.4956 27.8465 44.4956C28.0103 44.4956 28.1713 44.4524 28.3132 44.3705C28.4551 44.2885 28.573 44.1706 28.6549 44.0287L31.0297 39.9171C35.0132 39.7354 37.4294 39.2733 37.4497 39.2684C38.9919 39.0495 39.943 38.1008 40.1935 36.5417C40.2016 36.5117 40.9176 33.4492 40.9176 29.7195C40.9176 25.989 40.2008 22.9265 40.1976 22.9136Z" fill="white"/>
</g>
<defs>
<clipPath id="clip0_13_94">
<rect width="32" height="30" fill="white" transform="translate(14 15)"/>
</clipPath>
</defs>
</svg>
