<svg width="135" height="49" viewBox="0 0 135 49" fill="none" xmlns="http://www.w3.org/2000/svg">
<g clip-path="url(#clip0_2_245)">
<path fill-rule="evenodd" clip-rule="evenodd" d="M14.7839 25.3736C14.7839 18.4663 13.6245 15.603 10.4372 15.603C7.62597 15.603 6.20601 17.6102 6.20601 24.5768C6.20601 31.4543 7.30723 34.2884 10.553 34.2884C13.4219 34.2884 14.7839 32.3104 14.7839 25.3736ZM0.700134 25.1966C0.700134 17.433 5.94518 14.3633 10.6111 14.3633C15.5953 14.3633 20.2898 17.4038 20.2898 24.7242C20.2898 32.5466 15.0447 35.5281 10.3788 35.5281C5.3948 35.5281 0.700134 32.2811 0.700134 25.1966Z" fill="#184E7F" fill-opacity="0.6"/>
<path fill-rule="evenodd" clip-rule="evenodd" d="M43.8915 25.6983L48.8468 25.4326C48.8468 21.861 48.3835 20.5621 46.6446 20.5621C45.1665 20.5621 44.0073 21.979 43.8915 25.6983ZM39.3129 27.4399C39.3129 22.3037 43.0509 19.4403 46.8762 19.4403C50.8287 19.4403 53.3091 21.4295 53.4503 26.6335C53.4532 26.7347 53.3724 26.82 53.2726 26.82H44.0735C43.9737 26.82 43.8931 26.9054 43.8955 27.0068C44.0252 31.6956 45.8138 32.9895 48.7599 32.9895C50.1979 32.9895 51.3573 32.6492 52.3275 32.2109C52.399 32.1784 52.4819 32.1975 52.5329 32.2583L52.9182 32.72C52.9764 32.7896 52.9757 32.8926 52.9142 32.9589C51.8571 34.0945 49.705 35.5282 46.8762 35.5282C41.8339 35.5282 39.3129 32.4582 39.3129 27.4399Z" fill="#184E7F" fill-opacity="0.6"/>
<path fill-rule="evenodd" clip-rule="evenodd" d="M98.9866 27.6761C98.9866 21.7133 97.8566 20.5916 95.8858 20.5916C94.06 20.5916 92.988 21.9495 92.988 27.0268C92.988 33.0783 93.9442 34.3767 96.0595 34.3767C97.7987 34.3767 98.9866 33.3437 98.9866 27.6761ZM88.1196 27.5286C88.1196 21.8608 92.0605 19.4404 95.9729 19.4404C100.175 19.4404 103.855 22.0085 103.855 27.3809C103.855 33.0485 99.972 35.5284 95.9729 35.5284C91.7709 35.5284 88.1196 32.9303 88.1196 27.5286Z" fill="#184E7F" fill-opacity="0.6"/>
<path fill-rule="evenodd" clip-rule="evenodd" d="M116.271 27.6761C116.271 21.7133 115.141 20.5916 113.171 20.5916C111.345 20.5916 110.273 21.9495 110.273 27.0268C110.273 33.0783 111.229 34.3767 113.345 34.3767C115.084 34.3767 116.271 33.3437 116.271 27.6761ZM105.404 27.5286C105.404 21.8608 109.345 19.4404 113.258 19.4404C117.46 19.4404 121.14 22.0085 121.14 27.3809C121.14 33.0485 117.257 35.5284 113.258 35.5284C109.056 35.5284 105.404 32.9303 105.404 27.5286Z" fill="#184E7F" fill-opacity="0.6"/>
<path fill-rule="evenodd" clip-rule="evenodd" d="M65.3632 19.4404C63.2479 19.4404 61.3352 20.4146 59.7994 21.5361H59.6834L59.7404 19.675C59.7449 19.5323 59.6242 19.419 59.4852 19.4349L55.43 19.9032C55.3108 19.9168 55.2206 20.0194 55.2206 20.1417V34.9399C55.2206 35.0692 55.3235 35.1738 55.4503 35.1738H59.5985C59.7253 35.1738 59.8282 35.0692 59.8282 34.9399V22.5694C60.4657 22.4217 61.509 22.1857 62.5235 22.1857C63.8854 22.1857 64.5231 22.7466 64.5231 24.5471V34.9399C64.5231 35.0692 64.626 35.1738 64.7527 35.1738H68.9299C69.0567 35.1738 69.1598 35.0692 69.1598 34.9399V23.3961C69.1598 20.7393 67.8267 19.4404 65.3632 19.4404Z" fill="#184E7F" fill-opacity="0.6"/>
<path fill-rule="evenodd" clip-rule="evenodd" d="M81.592 32.5466C81.1283 32.7238 80.3458 33.1962 79.1577 33.1962C76.9553 33.1962 75.7962 31.6906 75.7962 27.0562C75.7962 22.1854 77.2451 20.6211 79.3315 20.6211C80.4039 20.6211 81.0993 21.2409 81.592 21.8608V32.5466ZM86.1996 16.5476C86.1996 15.0217 86.2506 13.6198 86.2776 13.0444C86.2854 12.8761 86.145 12.7409 85.9804 12.7558L81.8067 13.2386C81.6851 13.2498 81.592 13.3535 81.592 13.478V17.6103C81.592 18.6728 81.6499 19.765 81.6499 19.765C81.0414 19.5878 80.23 19.4403 79.4477 19.4403C74.9268 19.4403 71.0434 21.8905 71.0434 28.0305C71.0434 33.4027 73.8543 35.5282 76.7234 35.5282C78.7519 35.5282 80.3748 34.7016 81.621 33.6096H81.7368L81.678 35.2389C81.6713 35.4124 81.8201 35.5497 81.9887 35.5254L85.9646 35.0732C86.0994 35.0542 86.1996 34.9367 86.1996 34.798V16.5476Z" fill="#184E7F" fill-opacity="0.6"/>
<path fill-rule="evenodd" clip-rule="evenodd" d="M131.91 19.4404C130.229 19.4404 128.577 20.7393 127.679 21.7133H127.563L127.619 19.7296C127.624 19.5608 127.481 19.4265 127.316 19.4454L123.309 19.9034C123.19 19.9171 123.1 20.0196 123.1 20.1421V34.8961C123.1 35.0494 123.222 35.1738 123.373 35.1738H127.435C127.585 35.1738 127.708 35.0494 127.708 34.8961V22.9237C128.113 22.5399 128.78 22.156 129.301 22.156C129.562 22.156 129.736 22.2152 129.91 22.5399C130.461 23.4549 130.897 23.9838 132.141 23.9838C133.272 23.9838 134.282 23.0712 134.282 21.6543C134.282 20.2077 133.301 19.4404 131.91 19.4404Z" fill="#184E7F" fill-opacity="0.6"/>
<path fill-rule="evenodd" clip-rule="evenodd" d="M29.3502 34.3473C28.3648 34.3473 27.5825 33.9044 27.0606 33.2846V22.5397C27.5244 22.3628 28.2489 22.0084 29.4081 22.0084C31.6105 22.0084 32.8567 23.4843 32.8567 27.7055C32.8567 33.1076 31.6395 34.3473 29.3502 34.3473ZM31.9293 19.4405C29.9006 19.4405 28.2781 20.4145 27.0606 21.4772H26.9159L26.9718 19.7109C26.9769 19.5501 26.8406 19.4219 26.6838 19.44L22.6624 19.9031C22.5431 19.9169 22.4531 20.0197 22.4531 20.142V41.5162C22.4531 41.6594 22.5754 41.771 22.7152 41.7549L26.8515 41.2789C26.9707 41.2653 27.0606 41.1625 27.0606 41.0402V37.0337C27.0606 36.0006 27.0319 35.2331 27.0319 35.2331C27.6694 35.4101 28.6258 35.528 29.2343 35.528C34.0738 35.528 37.6091 32.8419 37.6091 26.702C37.6091 21.3 34.6823 19.4405 31.9293 19.4405Z" fill="#184E7F" fill-opacity="0.6"/>
</g>
<defs>
<clipPath id="clip0_2_245">
<rect width="134" height="48" fill="white" transform="translate(0.700195 0.754822)"/>
</clipPath>
</defs>
</svg>
